<mxfile host="app.diagrams.net" modified="2024-01-03T08:35:55.526Z" agent="Mozilla/5.0 (Windows NT 10.0; Win64; x64) AppleWebKit/537.36 (KHTML, like Gecko) Chrome/120.0.0.0 Safari/537.36" etag="QQ9fG8Hj63cK1UIXmvfb" version="22.1.16" type="github">
  <diagram name="第 1 页" id="EpN0NmAG7dbvHGJUEjZL">
    <mxGraphModel dx="1008" dy="553" grid="1" gridSize="10" guides="1" tooltips="1" connect="1" arrows="1" fold="1" page="1" pageScale="1" pageWidth="827" pageHeight="1169" math="0" shadow="0">
      <root>
        <mxCell id="0" />
        <mxCell id="1" parent="0" />
        <mxCell id="cDfvvNj0Lv3wODSTOBk4-1" value="" style="ellipse;whiteSpace=wrap;html=1;aspect=fixed;" vertex="1" parent="1">
          <mxGeometry x="310" y="240" width="80" height="80" as="geometry" />
        </mxCell>
        <mxCell id="cDfvvNj0Lv3wODSTOBk4-2" value="" style="shape=process;whiteSpace=wrap;html=1;backgroundOutline=1;" vertex="1" parent="1">
          <mxGeometry x="450" y="170" width="120" height="60" as="geometry" />
        </mxCell>
      </root>
    </mxGraphModel>
  </diagram>
</mxfile>
